{
  "source": "C:\\Users\\Peter\\Desktop\\stuff\\MIUN\\quantitative_research\\video_compression\\videos\\BVI-HD\\BVI-HD_CDVL_videos\\ORIG\\FishAndRock_1920x1080_30fps.mp4",
  "output": "C:\\Users\\Peter\\Desktop\\stuff\\MIUN\\quantitative_research\\video_compression\\compressed_videos\\BVI-HD\\vp9\\2\\FishAndRock_1920x1080_30fps_vp9.webm",
  "codec": "vp9",
  "ok": "Input #0, mov,mp4,m4a,3gp,3g2,mj2, from 'C:\\Users\\Peter\\Desktop\\stuff\\MIUN\\quantitative_research\\video_compression\\videos\\BVI-HD\\BVI-HD_CDVL_videos\\ORIG\\FishAndRock_1920x1080_30fps.mp4':\n  Metadata:\n    major_brand     : isom\n    minor_version   : 512\n    compatible_brands: isomiso2avc1mp41\n    encoder         : Lavf54.28.101\n  Duration: 00:00:05.00, start: 0.000000, bitrate: 251564 kb/s\n  Stream #0:0[0x1](und): Video: h264 (High 4:4:4 Predictive) (avc1 / 0x31637661), yuv420p(progressive), 1920x1080, 251561 kb/s, 30 fps, 30 tbr, 30 tbn (default)\n    Metadata:\n      handler_name    : VideoHandler\n      vendor_id       : [0][0][0][0]\n[out#0/webm @ 000001d268409240] Codec AVOption b:a (set bitrate (in bits/s)) has not been used for any stream. The most likely reason is either wrong type (e.g. a video option with no video streams) or that it is a private option of some decoder which was not actually used for any stream.\nStream mapping:\n  Stream #0:0 -> #0:0 (h264 (native) -> vp9 (libvpx-vp9))\nPress [q] to stop, [?] for help\n[libvpx-vp9 @ 000001d268eb04c0] v1.15.2-100-g40561f514\nOutput #0, webm, to 'C:\\Users\\Peter\\Desktop\\stuff\\MIUN\\quantitative_research\\video_compression\\compressed_videos\\BVI-HD\\vp9\\2\\FishAndRock_1920x1080_30fps_vp9.webm':\n  Metadata:\n    major_brand     : isom\n    minor_version   : 512\n    compatible_brands: isomiso2avc1mp41\n    encoder         : Lavf62.3.100\n  Stream #0:0(und): Video: vp9, yuv420p(tv, progressive), 1920x1080, q=2-31, 2000 kb/s, 30 fps, 1k tbn (default)\n    Metadata:\n      encoder         : Lavc62.11.100 libvpx-vp9\n      handler_name    : VideoHandler\n      vendor_id       : [0][0][0][0]\n    Side data:\n      cpb: bitrate max/min/avg: 0/0/0 buffer size: 2000000 vbv_delay: N/A\nframe=    0 fps=0.0 q=0.0 size=       0KiB time=N/A bitrate=N/A speed=N/A elapsed=0:00:00.53    \nframe=    6 fps=5.2 q=48.0 size=       1KiB time=00:00:00.16 bitrate=  30.4kbits/s speed=0.144x elapsed=0:00:01.15    \nframe=   11 fps=6.4 q=38.0 size=       1KiB time=00:00:00.36 bitrate=  13.8kbits/s speed=0.215x elapsed=0:00:01.70    \nframe=   16 fps=7.2 q=44.0 size=       1KiB time=00:00:00.53 bitrate=   9.5kbits/s speed=0.239x elapsed=0:00:02.22    \nframe=   20 fps=7.3 q=44.0 size=       1KiB time=00:00:00.66 bitrate=   7.6kbits/s speed=0.242x elapsed=0:00:02.75    \nframe=   26 fps=8.0 q=40.0 size=       1KiB time=00:00:00.86 bitrate=   5.9kbits/s speed=0.266x elapsed=0:00:03.26    \nframe=   32 fps=8.5 q=40.0 size=       1KiB time=00:00:01.06 bitrate=   4.8kbits/s speed=0.282x elapsed=0:00:03.78    \nframe=   38 fps=8.8 q=39.0 size=       1KiB time=00:00:01.26 bitrate=   4.0kbits/s speed=0.292x elapsed=0:00:04.33    \nframe=   42 fps=8.6 q=36.0 size=       1KiB time=00:00:01.40 bitrate=   3.6kbits/s speed=0.288x elapsed=0:00:04.86    \nframe=   47 fps=8.7 q=38.0 size=       1KiB time=00:00:01.56 bitrate=   3.2kbits/s speed=0.291x elapsed=0:00:05.38    \nframe=   52 fps=8.8 q=40.0 size=       1KiB time=00:00:01.73 bitrate=   2.9kbits/s speed=0.294x elapsed=0:00:05.89    \nframe=   57 fps=8.9 q=36.0 size=       1KiB time=00:00:01.90 bitrate=   2.7kbits/s speed=0.295x elapsed=0:00:06.43    \nframe=   62 fps=8.9 q=41.0 size=       1KiB time=00:00:02.06 bitrate=   2.5kbits/s speed=0.297x elapsed=0:00:06.95    \nframe=   67 fps=8.9 q=38.0 size=       1KiB time=00:00:02.23 bitrate=   2.3kbits/s speed=0.298x elapsed=0:00:07.49    \nframe=   71 fps=8.9 q=28.0 size=       1KiB time=00:00:02.36 bitrate=   2.1kbits/s speed=0.295x elapsed=0:00:08.01    \nframe=   76 fps=8.9 q=36.0 size=       1KiB time=00:00:02.53 bitrate=   2.0kbits/s speed=0.297x elapsed=0:00:08.53    \nframe=   80 fps=8.8 q=37.0 size=       1KiB time=00:00:02.66 bitrate=   1.9kbits/s speed=0.294x elapsed=0:00:09.05    \nframe=   86 fps=9.0 q=37.0 size=       1KiB time=00:00:02.86 bitrate=   1.8kbits/s speed=0.299x elapsed=0:00:09.58    \nframe=   90 fps=8.9 q=38.0 size=       1KiB time=00:00:03.00 bitrate=   1.7kbits/s speed=0.297x elapsed=0:00:10.11    \nframe=   95 fps=8.9 q=38.0 size=       1KiB time=00:00:03.16 bitrate=   1.6kbits/s speed=0.297x elapsed=0:00:10.65    \nframe=  100 fps=8.9 q=37.0 size=       1KiB time=00:00:03.33 bitrate=   1.5kbits/s speed=0.298x elapsed=0:00:11.17    \nframe=  105 fps=9.0 q=37.0 size=       1KiB time=00:00:03.50 bitrate=   1.4kbits/s speed=0.299x elapsed=0:00:11.68    \nframe=  109 fps=8.9 q=31.0 size=       1KiB time=00:00:03.63 bitrate=   1.4kbits/s speed=0.297x elapsed=0:00:12.21    \nframe=  114 fps=8.9 q=39.0 size=       1KiB time=00:00:03.80 bitrate=   1.3kbits/s speed=0.298x elapsed=0:00:12.74    \nframe=  119 fps=9.0 q=38.0 size=       1KiB time=00:00:03.96 bitrate=   1.3kbits/s speed=0.299x elapsed=0:00:13.28    \nframe=  123 fps=8.9 q=37.0 size=       1KiB time=00:00:04.10 bitrate=   1.2kbits/s speed=0.297x elapsed=0:00:13.80    \nframe=  126 fps=8.8 q=39.0 size=       1KiB time=00:00:04.20 bitrate=   1.2kbits/s speed=0.293x elapsed=0:00:14.33    \nframe=  126 fps=8.5 q=39.0 size=       1KiB time=00:00:04.20 bitrate=   1.2kbits/s speed=0.283x elapsed=0:00:14.85    \nframe=  126 fps=8.2 q=39.0 size=       1KiB time=00:00:04.20 bitrate=   1.2kbits/s speed=0.273x elapsed=0:00:15.38    \nframe=  126 fps=7.9 q=39.0 size=       1KiB time=00:00:04.20 bitrate=   1.2kbits/s speed=0.264x elapsed=0:00:15.91    \nframe=  126 fps=7.7 q=39.0 size=       1KiB time=00:00:04.20 bitrate=   1.2kbits/s speed=0.256x elapsed=0:00:16.43    \n[out#0/webm @ 000001d268409240] video:1347KiB audio:0KiB subtitle:0KiB other streams:0KiB global headers:0KiB muxing overhead: 0.127855%\nframe=  150 fps=9.0 q=37.0 Lsize=    1349KiB time=00:00:05.00 bitrate=2210.3kbits/s speed= 0.3x elapsed=0:00:16.68    \n",
  "seconds": 16.952258110046387,
  "probe_out": {}
}